<svg width="150" height="145" viewBox="0 0 150 145" fill="none" xmlns="http://www.w3.org/2000/svg">
    <path
        d="M74.5574 124.951C62.2739 124.951 50.4139 120.511 41.1671 112.452C32.0101 104.47 26.0095 93.4931 24.2731 81.5415L26.1549 81.2681C29.615 105.09 50.4225 123.054 74.5574 123.054C98.5854 123.054 119.38 105.18 122.93 81.4774L124.807 81.7595C123.024 93.664 117.011 104.586 107.866 112.525C98.6324 120.537 86.8023 124.951 74.5574 124.951Z"
        fill="white" />
    <path
        d="M26.1081 67.4322L24.2262 67.1715C27.6734 42.2258 49.3106 23.416 74.5575 23.416C86.8667 23.416 98.7395 27.8685 107.991 35.953C117.156 43.9606 123.148 54.9678 124.859 66.9493L122.977 67.2185C119.564 43.3325 98.7481 25.3175 74.5575 25.3175C50.2558 25.3175 29.427 43.4222 26.1081 67.4322Z"
        fill="white" />
    <path
        d="M74.5575 120.093C53.2967 120.093 34.9357 105.697 29.9103 85.0883L31.7579 84.6396C36.5738 104.398 54.1778 118.196 74.5575 118.196C94.6465 118.196 112.182 104.646 117.207 85.2421L119.047 85.7164C113.807 105.958 95.5104 120.093 74.5575 120.093Z"
        fill="white" />
    <path
        d="M31.7921 63.5694L29.9487 63.1122C35.034 42.6018 53.378 28.2744 74.5575 28.2744C95.6173 28.2744 113.936 42.4992 119.102 62.8686L117.259 63.3344C112.306 43.811 94.7448 30.1716 74.5575 30.1716C54.2505 30.1716 36.6678 43.9051 31.7921 63.5694Z"
        fill="white" />
    <path
        d="M74.5575 114.187C73.7363 114.187 72.9151 113.952 72.2009 113.478L18.0972 77.7472C16.8954 76.9524 16.1812 75.6236 16.1812 74.1835C16.1812 72.7478 16.8997 71.4146 18.0972 70.6241L72.2009 34.8933C73.6337 33.949 75.4813 33.949 76.9141 34.8933L87.1018 41.6617L84.3817 42.9009L75.5155 37.0042C74.9339 36.6196 74.1811 36.6196 73.5952 37.0042L19.4915 72.735C18.9954 73.064 18.7131 73.5896 18.7131 74.1835C18.7131 74.7775 18.9954 75.3073 19.4915 75.6321L73.5952 111.363C74.1768 111.747 74.9296 111.747 75.5155 111.363L129.619 75.6321C130.115 75.3031 130.398 74.7775 130.398 74.1835C130.398 73.5896 130.115 73.0597 129.619 72.735L92.9998 48.5498L94.0305 46.1868L131.018 70.6241C132.22 71.4189 132.934 72.7478 132.934 74.1835C132.934 75.6193 132.215 76.9524 131.018 77.7472L76.9141 113.478C76.1956 113.948 75.3787 114.187 74.5575 114.187Z"
        fill="white" />
    <path
        d="M9.4963 49.5028L10.48 49.913C13.0162 50.9727 13.8289 50.524 14.5859 48.7123L14.7014 48.4388C14.928 47.8919 15.1291 47.2595 15.2317 46.7082L13.9999 45.9391L14.526 44.6871L16.9553 45.6998C16.7629 46.8834 16.4635 48.0243 16.0572 49.0071L15.9417 49.2806C14.6757 52.3059 13.2686 52.9981 9.44925 51.4043L9.17553 51.2889C5.3562 49.6951 4.85579 48.2081 6.12177 45.1828L6.23725 44.9093C6.64784 43.9265 7.24662 42.9138 7.95659 41.9438L10.3731 42.9523L9.83418 44.2043L8.43134 43.8752C8.11056 44.3325 7.80262 44.9264 7.57167 45.4691L7.45619 45.7425C6.70344 47.5543 6.96006 48.4474 9.4963 49.5028Z"
        fill="white" />
    <path
        d="M23.0116 34.3592L23.9397 34.966L21.6301 38.504L20.702 37.8972L21.2196 36.8076L19.0554 36.2265L17.2249 39.0339L18.6534 40.7388L19.4446 39.8244L20.3727 40.4311L18.1444 43.8453L17.2163 43.2385L17.7338 42.1489L11.6434 34.7694L12.8795 32.8765L22.2118 35.2864L23.0116 34.3592ZM17.6568 35.8633L13.6622 34.795L16.301 37.9442L17.6568 35.8633Z"
        fill="white" />
    <path
        d="M22.5155 28.0522L23.2896 28.7829C25.287 30.6716 26.2023 30.5434 27.5538 29.1162L27.7591 28.9026C28.1654 28.4753 28.5803 27.9497 28.8711 27.4711L27.9943 26.3131L28.931 25.3261L30.8428 27.1335C30.244 28.1719 29.5597 29.1333 28.8283 29.9024L28.623 30.1161C26.3691 32.4962 24.8037 32.6414 21.797 29.7999L21.5831 29.5948C18.5807 26.7532 18.6406 25.185 20.8945 22.805L21.0998 22.5913C21.8312 21.8179 22.7507 21.083 23.7601 20.4292L25.6591 22.2239L24.7224 23.2109L23.5206 22.4161C23.0587 22.7323 22.5583 23.1725 22.152 23.604L21.9467 23.8177C20.5994 25.2406 20.5182 26.1636 22.5155 28.0522Z"
        fill="white" />
    <path
        d="M40.5128 18.6688L41.1672 19.5619L37.7542 22.0573L37.0998 21.1643L37.968 20.3268L36.1503 19.0192L33.443 20.9976L34.1744 23.0957L35.235 22.5188L35.8894 23.4119L32.5962 25.8176L31.9418 24.9245L32.81 24.087L29.7306 15.0282L31.5569 13.6951L39.435 19.2457L40.5128 18.6688ZM34.9742 18.1817L31.6125 15.7717L32.9683 19.6474L34.9742 18.1817Z"
        fill="white" />
    <path
        d="M41.5394 7.7854L42.0141 8.78528L41.0005 9.4476L43.0449 13.742C43.9516 15.6477 44.6958 16.2801 46.4579 15.4426L46.7231 15.3144C48.4852 14.4769 48.4638 13.5069 47.5571 11.5969L45.5127 7.30255L44.3622 7.67003L43.8874 6.67015L47.664 4.87549L48.1387 5.87537L47.1123 6.54196L48.9856 10.4774C50.4226 13.4899 50.3799 15.1948 47.3518 16.6348L47.0866 16.763C44.0671 18.1987 42.7412 17.2245 41.2699 14.1436L39.3966 10.2082L38.2461 10.5757L37.7714 9.57579L41.5394 7.7854Z"
        fill="white" />
    <path
        d="M67.7957 5.26005L67.8427 5.55062C68.48 9.39632 67.7914 10.6483 64.481 11.1953L59.1605 12.0755L58.9808 10.9816L60.1356 10.6269L58.8611 2.93554L57.655 2.96972L57.4753 1.87583L62.7959 0.995596C66.0977 0.452925 67.1584 1.43144 67.7957 5.26005ZM65.9865 5.20023C65.5545 2.60652 64.9686 2.1194 63.0268 2.44414L60.636 2.84153L61.8507 10.1526L64.2415 9.75525C66.179 9.43477 66.581 8.78528 66.1533 6.19157L65.9865 5.20023Z"
        fill="white" />
    <path
        d="M80.2417 2.79454L78.8816 2.7689L78.7276 1.50837L74.502 1.42718L74.4421 4.51229L78.2571 4.58493L78.2315 5.95656L74.4164 5.88819L74.3566 9.0203L78.5822 9.10149L78.7832 7.8495L80.1433 7.87514L80.092 10.503L71.3541 10.3364L71.3755 9.22968L72.5773 9.08867L72.727 1.29045L71.5338 1.10671L71.5551 0L80.293 0.166647L80.2417 2.79454Z"
        fill="white" />
    <path
        d="M89.3216 6.82822L89.4029 6.5462C90.5149 2.67059 91.6782 1.82026 94.9202 2.7475L95.2024 2.82869C98.4273 3.75166 98.9662 5.0891 97.8584 8.96472L97.7772 9.24673C96.6609 13.1352 95.5018 13.9727 92.2727 13.0497L91.9904 12.9685C88.7485 12.0455 88.1839 10.8064 89.3216 6.82822ZM92.679 11.6482C94.5694 12.1908 95.211 11.7721 95.968 9.13136L96.2588 8.11012C97.0159 5.4694 96.6908 4.77717 94.8004 4.2345L94.5181 4.15332C92.6149 3.60637 91.9733 4.02513 91.2163 6.66584L90.9255 7.68709C90.1684 10.3278 90.4935 11.02 92.3967 11.5627L92.679 11.6482Z"
        fill="white" />
    <path
        d="M107.704 18.1815L107.208 19.1728L104.988 18.0661L104.637 13.3701L103.38 12.7462L102.14 15.2289L103.153 15.9125L102.657 16.9039L98.9148 15.0408L99.4109 14.0495L100.553 14.4383L104.034 7.46054L103.038 6.78113L103.534 5.78979L108.217 8.12285C110.638 9.32784 110.997 10.661 110.12 12.4172L109.988 12.6821C109.235 14.1862 108.2 14.7759 106.387 14.1734L106.695 17.4935L107.704 18.1815ZM103.996 11.5156L105.942 12.4856C107.289 13.1564 107.901 12.9001 108.38 11.9344L108.512 11.6694C108.996 10.7037 108.833 10.0628 107.486 9.39193L105.54 8.42196L103.996 11.5156Z"
        fill="white" />
    <path
        d="M109.778 19.626L110.856 20.1729L115.3 13.7634L114.41 12.9473L115.043 12.0371L118.469 14.4086L117.836 15.3188L116.758 14.7718L112.314 21.1813L113.204 21.9975L112.571 22.9076L109.145 20.5361L109.778 19.626Z"
        fill="white" />
    <path
        d="M125.12 26.8387L124.363 27.6506L123.537 27.125L120.997 29.8469C119.953 29.2572 118.987 28.5778 118.208 27.8557L117.99 27.6548C115.591 25.4201 115.432 23.8561 118.255 20.8309L118.456 20.6172C121.279 17.5919 122.849 17.6432 125.248 19.878L125.466 20.0788C126.245 20.8052 126.989 21.7196 127.652 22.7195L125.855 24.6424L124.863 23.7151L125.667 22.5059C125.346 22.0487 124.902 21.5487 124.47 21.1471L124.256 20.9462C122.806 19.596 121.895 19.5319 120.022 21.5402L119.295 22.3179C117.417 24.3262 117.545 25.232 118.991 26.5823L119.205 26.7831C119.637 27.1848 120.163 27.595 120.646 27.8813L122.37 26.0354L121.399 24.8902L122.156 24.0783L125.12 26.8387Z"
        fill="white" />
    <path
        d="M134.563 35.0129L133.751 33.9233L134.653 33.0345L132.13 29.646L129.649 31.4877L131.924 34.5472L130.821 35.3676L128.546 32.3081L126.031 34.1754L128.554 37.5639L129.666 36.9571L130.479 38.0468L128.366 39.6149L123.157 32.6115L124.046 31.9492L124.893 32.8123L131.155 28.1633L130.573 27.1079L131.462 26.4456L136.672 33.449L134.563 35.0129Z"
        fill="white" />
    <path
        d="M143.164 48.8788L136.065 52.122L136.415 53.28L135.406 53.7415L133.674 49.9513L134.683 49.4898L135.329 50.5111L141.368 47.755L132.921 48.3019L132.258 46.8491L138.164 40.8883L132.181 43.623L132.532 44.781L131.522 45.2425L129.88 41.6574L130.889 41.1959L131.535 42.2172L138.635 38.974L138.284 37.816L139.294 37.3545L140.85 40.7515L134.948 46.6825L143.297 46.1013L144.828 49.4471L143.819 49.9086L143.164 48.8788Z"
        fill="white" />
    <path
        d="M11.8698 91.4849L11.6431 90.4593L12.5584 90.1175L11.904 87.1563L9.35493 87.7203L9.94087 90.3696L8.90585 90.5961L8.3199 87.9468L6.10443 88.4339L6.27979 89.8056L5.44578 89.9893L4.65454 86.4085L5.48855 86.2248L5.80932 87.1008L11.6902 85.806L11.6132 84.8788L12.4472 84.6951L13.85 91.049L11.8698 91.4849Z"
        fill="white" />
    <path
        d="M7.61853 94.8693L8.02912 95.7068L13.7431 93.8011L13.5678 92.8866L14.3804 92.6174L15.3983 95.6641L14.5857 95.9333L14.1751 95.0958L8.46109 97.0015L8.63645 97.916L7.82383 98.1852L6.80591 95.1385L7.61853 94.8693Z"
        fill="white" />
    <path
        d="M19.5084 104.919L18.7343 105.287L18.2253 104.509L11.904 107.509L11.2325 106.099L15.0989 100.163L10.5268 102.334L10.8091 103.223L10.0349 103.59L8.73474 100.843L9.50887 100.475L10.0178 101.253L15.4539 98.672L15.1716 97.7832L15.9457 97.4158L17.0107 99.6591L13.1486 105.603L17.7206 103.432L17.4341 102.535L18.2082 102.167L19.5084 104.919Z"
        fill="white" />
    <path
        d="M22.4596 113.047L21.8737 112.175L22.6007 111.521L20.783 108.816L18.8071 110.145L20.4494 112.585L19.5684 113.175L17.926 110.735L15.9201 112.081L17.7378 114.786L18.6189 114.358L19.2048 115.23L17.5197 116.362L13.7603 110.773L14.4702 110.295L15.0904 110.991L20.0859 107.637L19.6753 106.799L20.3853 106.321L24.1447 111.91L22.4596 113.047Z"
        fill="white" />
    <path
        d="M26.4202 120.033L25.8428 120.614C24.3459 122.114 24.4271 122.823 25.5049 123.891L25.6674 124.054C25.9925 124.374 26.386 124.703 26.7495 124.938L27.6605 124.284L28.4047 125.024L26.9719 126.459C26.1807 125.976 25.4536 125.434 24.8719 124.853L24.7094 124.69C22.9131 122.904 22.8318 121.699 25.0858 119.439L25.2483 119.276C27.5023 117.016 28.7084 117.093 30.5047 118.879L30.6672 119.041C31.2489 119.618 31.8006 120.345 32.2839 121.131L30.8597 122.558L30.1155 121.819L30.757 120.913C30.5218 120.55 30.1925 120.157 29.8674 119.836L29.7049 119.674C28.6271 118.61 27.9171 118.533 26.4202 120.033Z"
        fill="white" />
    <path
        d="M35.8722 132.66L35.3589 133.343L32.75 131.386L33.2632 130.703L34.0801 131.156L34.6361 129.523L32.5661 127.972L31.1804 128.985L31.8433 129.639L31.33 130.322L28.8109 128.434L29.3241 127.75L30.1411 128.203L36.1416 123.896L37.5359 124.943L35.205 132.002L35.8722 132.66ZM34.9869 128.464L36.0133 125.443L33.4557 127.314L34.9869 128.464Z"
        fill="white" />
    <path
        d="M41.0517 131.591L40.6582 132.309C39.636 134.168 39.914 134.826 41.2399 135.557L41.4409 135.668C41.8386 135.886 42.3134 136.095 42.724 136.219L43.4168 135.339L44.3364 135.843L43.357 137.621C42.4631 137.377 41.612 137.052 40.8934 136.659L40.6924 136.548C38.4727 135.33 38.0578 134.194 39.5975 131.395L39.7087 131.194C41.2441 128.399 42.4289 128.139 44.6486 129.357L44.8496 129.468C45.5682 129.861 46.2995 130.408 46.9838 131.027L46.013 132.796L45.0934 132.292L45.4612 131.245C45.1362 130.963 44.7085 130.677 44.3064 130.455L44.1054 130.344C42.7753 129.613 42.0739 129.733 41.0517 131.591Z"
        fill="white" />
    <path
        d="M53.6258 141.099L53.3222 141.898L50.2727 140.744L50.5763 139.945L51.4831 140.155L51.5643 138.432L49.1436 137.518L48.0957 138.877L48.9169 139.321L48.6132 140.12L45.6707 139.009L45.9743 138.21L46.881 138.42L51.4403 132.617L53.0698 133.232L52.7961 140.654L53.6258 141.099ZM51.6071 137.317L51.7525 134.134L49.815 136.642L51.6071 137.317Z"
        fill="white" />
    <path
        d="M56.8635 138.864L56.9105 138.642C57.5777 135.604 58.4331 134.894 60.9694 135.45L61.1918 135.497C63.7195 136.048 64.1985 137.052 63.5356 140.09L63.4885 140.313C62.8213 143.359 61.9659 144.06 59.4382 143.509L59.2158 143.462C56.6753 142.902 56.1792 141.979 56.8635 138.864ZM59.6777 142.406C61.1576 142.731 61.6323 142.381 62.0857 140.308L62.261 139.509C62.7144 137.441 62.4321 136.924 60.948 136.599L60.7256 136.552C59.2329 136.228 58.7582 136.578 58.3048 138.646L58.1295 139.445C57.6761 141.513 57.9584 142.03 59.4511 142.359L59.6777 142.406Z"
        fill="white" />
    <path
        d="M76.7129 139.108L75.665 139.09L75.5453 138.12L72.5129 138.065L72.4659 140.671L75.1775 140.718L75.1604 141.778L72.4488 141.731L72.4103 143.996L73.7875 144.145L73.7703 145L70.1007 144.936L70.1135 144.081L71.0374 143.975L71.1443 137.962L70.2247 137.821L70.2376 136.967L76.7471 137.082L76.7129 139.108Z"
        fill="white" />
    <path
        d="M86.2377 143.278L86.3361 144.128L84.4328 144.346L82.2302 141.453L81.1524 141.577L81.3962 143.705L82.3414 143.722L82.4398 144.573L79.232 144.94L79.1337 144.09L80.0361 143.859L79.3518 137.881L78.4194 137.86L78.321 137.009L82.3328 136.552C84.4072 136.317 85.1984 137.027 85.3695 138.535L85.3951 138.761C85.5448 140.052 85.1214 140.868 83.6929 141.24L85.2882 143.261L86.2377 143.278ZM81.0369 140.522L82.7007 140.33C83.8554 140.197 84.142 139.774 84.0479 138.949L84.0222 138.723C83.9281 137.898 83.556 137.548 82.4013 137.68L80.7375 137.873L81.0369 140.522Z"
        fill="white" />
    <path
        d="M88.2778 139.812L88.2222 139.59C87.4309 136.582 87.8715 135.561 90.3863 134.903L90.6087 134.847C93.1108 134.193 93.9961 134.869 94.7873 137.877L94.8429 138.099C95.6342 141.12 95.1936 142.128 92.6873 142.786L92.4692 142.846C89.9544 143.496 89.0904 142.898 88.2778 139.812ZM92.4008 141.688C93.8678 141.304 94.1287 140.778 93.5941 138.727L93.3845 137.932C92.8456 135.881 92.358 135.552 90.891 135.937L90.6729 135.992C89.1931 136.381 88.9322 136.907 89.4711 138.958L89.6806 139.753C90.2195 141.804 90.7071 142.133 92.1827 141.748L92.4008 141.688Z"
        fill="white" />
    <path
        d="M104.564 130.698L107.037 136.185L107.93 135.92L108.281 136.698L105.347 138.014L104.996 137.236L105.788 136.745L103.688 132.078L104.068 138.591L102.943 139.095L98.3671 134.514L100.45 139.137L101.344 138.873L101.695 139.65L98.9189 140.898L98.5681 140.12L99.3594 139.629L96.8873 134.142L95.9934 134.407L95.6427 133.63L98.273 132.446L102.824 137.022L102.413 130.583L105.005 129.421L105.356 130.198L104.564 130.698Z"
        fill="white" />
    <path
        d="M118.811 126.656L118.948 126.835C119.709 127.831 119.645 128.899 117.921 130.211L114.59 132.745L114.072 132.066L114.731 131.408L111.083 126.618L110.27 127.079L109.752 126.4L112.9 124.002C114.624 122.691 115.65 122.887 116.407 123.883L116.544 124.062C116.985 124.643 117.105 125.284 116.75 125.985C117.656 125.686 118.298 125.985 118.811 126.656ZM113.662 127.75L114.987 126.741C115.851 126.088 115.975 125.575 115.518 124.977L115.381 124.797C114.923 124.199 114.444 124.246 113.585 124.904L112.259 125.913L113.662 127.75ZM117.656 127.404C117.173 126.767 116.673 126.793 115.809 127.447L114.303 128.592L115.727 130.459L117.233 129.314C118.097 128.656 118.251 128.181 117.793 127.583L117.656 127.404Z"
        fill="white" />
    <path
        d="M126.929 120.772L127.536 121.375L126.189 122.738L122.66 121.866L121.899 122.635L123.422 124.139L124.17 123.562L124.778 124.165L122.511 126.459L121.903 125.857L122.464 125.113L118.182 120.887L117.443 121.456L116.835 120.858L119.671 117.99C121.138 116.508 122.203 116.567 123.281 117.631L123.443 117.794C124.367 118.708 124.551 119.606 123.67 120.789L126.18 121.362L126.929 120.772ZM121.146 121.887L122.323 120.695C123.139 119.87 123.097 119.362 122.506 118.777L122.344 118.614C121.754 118.029 121.245 117.995 120.428 118.819L119.252 120.011L121.146 121.887Z"
        fill="white" />
    <path
        d="M133.344 112.436L134.033 112.944L132.095 115.568L131.407 115.059L131.856 114.243L130.218 113.7L128.678 115.781L129.7 117.161L130.35 116.495L131.039 117.003L129.17 119.533L128.481 119.024L128.93 118.208L124.577 112.247L125.612 110.846L132.69 113.123L133.344 112.436ZM129.149 113.35L126.116 112.346L128.007 114.888L129.149 113.35Z"
        fill="white" />
    <path
        d="M136.676 104.069L138.459 105.035L135.389 110.692L134.495 110.209L131.471 103.3L129.888 106.214L130.722 106.808L130.222 107.731L128.438 106.765L131.368 101.368L132.262 101.851L135.286 108.761L137.001 105.594L136.176 104.992L136.676 104.069Z"
        fill="white" />
    <path
        d="M138.802 102.116L139.037 101.215L133.464 98.9414L132.998 99.749L132.207 99.4242L133.421 96.4502L134.212 96.7749L133.977 97.6765L139.55 99.9498L140.016 99.1422L140.808 99.4669L139.593 102.441L138.802 102.116Z"
        fill="white" />
    <path
        d="M141.642 90.1133L143.592 90.6773L141.783 96.9245L140.962 96.6852L141.098 95.7622L135.316 94.0915L134.94 94.9418L134.118 94.7025L135.141 91.1773L135.962 91.4166L135.701 92.7754L141.406 94.4247L142.249 91.5148L141.355 91.1132L141.642 90.1133Z"
        fill="white" />
    <path
        d="M51.6586 84.1823C50.94 84.1823 50.23 83.8789 49.7296 83.2935C48.8229 82.2295 48.9512 80.6314 50.0162 79.7256C56.1622 74.4997 63.5186 70.654 71.2856 68.6029C82.0721 65.7571 91.5156 66.851 97.5419 68.2696C98.9019 68.5901 99.7488 69.9532 99.428 71.3163C99.1072 72.6751 97.7429 73.5212 96.3785 73.2007C90.9168 71.9145 82.3586 70.9232 72.5815 73.4998C65.5416 75.3586 58.8738 78.8453 53.3052 83.5841C52.8219 83.9857 52.2402 84.1823 51.6586 84.1823Z"
        fill="white" />
    <path
        d="M66.6749 77.6106C66.6578 79.1959 66.6792 80.7855 66.7391 82.3836C66.7647 83.0373 67.3464 83.533 67.9965 83.4518L68.0179 83.4475C68.591 83.3749 69.0187 82.875 68.9973 82.2981C68.993 82.1272 68.9845 81.9563 68.9802 81.7896C68.9289 80.1061 68.916 78.4268 68.9502 76.7518C68.1847 77.0167 67.4276 77.3072 66.6749 77.6106ZM68.8305 61.151C67.8211 64.7831 67.2309 68.4279 66.9272 72.0899C67.7014 71.8122 68.4841 71.5601 69.2667 71.3165C69.5234 68.6801 69.9468 66.0607 70.614 63.467C71.0331 61.8432 71.7132 60.2836 72.3119 58.7111C72.3889 58.506 72.6627 58.3052 72.8851 58.2368C73.9286 57.9121 74.9808 57.9591 76.0372 58.2069C76.4307 58.2967 76.6702 58.4889 76.7985 58.8479C77.3801 60.5186 78.0559 62.1637 78.505 63.8729C78.8258 65.0779 79.2235 67.317 79.4459 68.616C79.4887 68.8552 79.6042 69.0646 79.7667 69.2227C80.3484 69.1672 80.9215 69.1202 81.4903 69.0817C81.6528 68.8552 81.7384 68.5732 81.6999 68.2741C81.3877 65.9026 80.8701 63.5952 80.2029 61.3006C81.6657 61.9501 84.1934 65.4881 85.8785 68.9706C86.7467 68.9834 87.5893 69.0176 88.4104 69.0689C88.0426 68.1716 87.6406 67.2742 87.1744 66.3769C85.408 62.9756 82.7734 60.2622 79.9335 57.7754C76.8412 55.0663 72.6455 55.0107 69.395 57.5104C68.3686 58.3009 67.5004 59.288 66.568 60.1981C64.1087 62.5953 62.1584 65.3514 60.8112 68.5177C59.789 70.9234 59.1303 73.3376 58.8309 75.7647C59.6564 75.3075 60.4947 74.8674 61.3458 74.4529C62.2311 69.7654 64.5963 65.1164 68.8305 61.151ZM89.9929 74.2734C89.2402 74.1965 88.466 74.1367 87.662 74.0939C88.4618 77.8456 88.3206 81.6187 87.2599 85.3747C86.0282 89.7417 83.663 93.4165 80.2158 96.5999C81.2465 93.0746 81.8111 89.6092 82.1147 86.0968C82.3885 82.9818 82.4783 79.8668 82.3927 76.7048C82.3756 76.051 81.8154 75.5382 81.161 75.581H81.1396C80.5152 75.6194 80.0361 76.1493 80.0532 76.7731C80.1003 78.3328 80.1473 81.1273 80.0832 82.6186C79.9592 85.4046 79.6854 88.182 79.1979 90.9424C78.7103 93.6942 78.0559 96.3947 76.837 98.9329C76.6787 99.2619 76.4777 99.4457 76.1099 99.5354C75.0834 99.7832 74.0741 99.7747 73.0476 99.5311C72.6413 99.4328 72.3804 99.232 72.2521 98.856C71.6747 97.1853 71.0331 95.5316 70.5498 93.8309C70.2333 92.7114 70.028 91.562 69.8056 90.3869C69.6944 89.8101 69.1555 89.4127 68.5696 89.4853C68.561 89.4853 68.5568 89.4853 68.5482 89.4896C67.8981 89.5708 67.4533 90.1903 67.5902 90.8313C67.9965 92.7157 68.3942 94.5744 68.7792 96.3691C64.3269 92.6345 61.3928 86.7292 60.9823 80.3667C60.2509 80.7812 59.5281 81.2085 58.8181 81.6614C59.0576 83.7167 59.5495 85.7721 60.3022 87.8359C61.7265 91.7543 63.9932 95.147 67.1026 97.9587C67.6629 98.5184 68.2274 99.0825 68.7877 99.6422C71.5934 102.445 76.2681 102.83 79.4245 100.416C80.5451 99.561 81.4903 98.4714 82.5168 97.4972C84.018 96.07 85.3567 94.4975 86.4174 92.72C90.0271 86.6438 91.2119 80.4906 89.9929 74.2734Z"
        fill="white" />
    <path
        d="M6.63491 63.3516L8.14896 66.4154C8.22167 66.5649 8.36708 66.6718 8.53388 66.6931L11.9212 67.1845C12.3404 67.2443 12.5072 67.7614 12.2035 68.0562L9.75282 70.4405C9.63307 70.5559 9.57746 70.7268 9.6074 70.8935L10.1848 74.2606C10.2575 74.6794 9.81697 74.9956 9.44488 74.799L6.41679 73.2094C6.26709 73.1325 6.09174 73.1325 5.94204 73.2094L2.91395 74.799C2.53758 74.9956 2.10133 74.6794 2.17403 74.2606L2.75142 70.8935C2.78136 70.7268 2.72576 70.5602 2.60601 70.4405L0.155306 68.0562C-0.148359 67.7614 0.0184428 67.2443 0.437586 67.1845L3.82494 66.6931C3.99174 66.6675 4.13716 66.5649 4.20987 66.4154L5.72392 63.3516C5.90783 62.9713 6.451 62.9713 6.63491 63.3516Z"
        fill="white" />
    <path
        d="M143.361 63.3516L144.875 66.4154C144.948 66.5649 145.093 66.6718 145.26 66.6931L148.647 67.1845C149.067 67.2443 149.233 67.7614 148.93 68.0562L146.479 70.4405C146.359 70.5559 146.304 70.7268 146.334 70.8935L146.911 74.2606C146.984 74.6794 146.543 74.9956 146.171 74.799L143.143 73.2094C142.993 73.1325 142.818 73.1325 142.668 73.2094L139.64 74.799C139.264 74.9956 138.828 74.6794 138.9 74.2606L139.478 70.8935C139.508 70.7268 139.452 70.5602 139.332 70.4405L136.882 68.0562C136.578 67.7614 136.745 67.2443 137.164 67.1845L140.551 66.6931C140.718 66.6675 140.863 66.5649 140.936 66.4154L142.45 63.3516C142.634 62.9713 143.173 62.9713 143.361 63.3516Z"
        fill="white" />
    <path
        d="M72.7953 54.0364C67.9795 54.0364 64.0618 50.1224 64.0618 45.311C64.0618 44.6102 64.6306 44.0461 65.3278 44.0461C70.1436 44.0461 74.0613 47.9602 74.0613 52.7716C74.0656 53.4681 73.4968 54.0364 72.7953 54.0364ZM66.0292 46.0074C66.7434 49.0028 69.1043 51.3615 72.1025 52.0751C71.3882 49.0797 69.0231 46.7168 66.0292 46.0074Z"
        fill="white" />
    <path
        d="M89.4498 43.4309C88.9067 46.1827 87.5594 48.708 85.5322 50.7377C83.5049 52.7631 80.9729 54.1091 78.2185 54.6518C79.3477 49.0114 83.8043 44.559 89.4498 43.4309ZM92.2598 40.6235C82.9531 40.6235 75.4086 48.1611 75.4086 57.4592C84.7153 57.4592 92.2598 49.9216 92.2598 40.6235Z"
        fill="white" />
</svg>